<svg enable-background="new 0 0 60 59" viewBox="0 0 60 59" xmlns="http://www.w3.org/2000/svg"><path d="m38.7 0h-38l59 59h.3v-37.7z" fill="#ff5357"/><path d="m45.9 26.9 4-2.5.8.8-7.3 4.3-.5-.5 2.6-4.9.8-1.1-1.1.8-4.8 2.6-.5-.5 4.2-7.3.8.8-2.4 4.2-.9 1.3 1.4-.9 4.2-2.3.6.6-2.3 4.3-.9 1.3zm-4.4-6.8c-.1.1-.3.3-.4.4-.2.1-.3.3-.5.4l-2.9-2.9c-.3.3-.6.6-.8 1-.2.3-.4.6-.4.9-.1.3-.1.6 0 .9s.2.5.5.8c.2.2.4.4.7.5s.5.2.7.2l-.3.9c-.3 0-.7-.1-1.1-.3s-.7-.4-1-.7c-.4-.4-.6-.7-.7-1.1s-.1-.8 0-1.2.3-.9.6-1.3.7-.9 1.1-1.3c1-1 1.9-1.5 2.7-1.7s1.6.1 2.3.7c.2.2.4.4.5.7.2.3.2.6.2.9s-.1.7-.3 1.1c-.1.2-.4.7-.9 1.1zm-.2-3.2c-.3-.3-.8-.5-1.2-.4-.5.1-1 .4-1.6.9l2.1 2.1c.6-.6.9-1 1-1.5.1-.4 0-.8-.3-1.1zm-4.5-1.6-3.7 3.7-.8-.8 3.5-3.4c.6-.6.9-1 1-1.4s0-.7-.3-1.1c-.3-.3-.6-.5-1-.5s-.7.1-1.1.2l-4.2 4-.8-.8 5.7-5.7.6.6-.5.7c.3-.1.7 0 1.1.1s.8.3 1.1.7c.2.2.4.5.5.7.1.3.2.5.1.8 0 .3-.2.6-.4.9-.1.5-.4.9-.8 1.3z" fill="#fff"/></svg>